<?xml version="1.0" encoding="utf-8"?>
<!-- Generator: Adobe Illustrator 16.0.0, SVG Export Plug-In . SVG Version: 6.00 Build 0)  -->
<!DOCTYPE svg PUBLIC "-//W3C//DTD SVG 1.1//EN" "http://www.w3.org/Graphics/SVG/1.1/DTD/svg11.dtd">
<svg version="1.1" id="Layer_1" xmlns="http://www.w3.org/2000/svg" xmlns:xlink="http://www.w3.org/1999/xlink" x="0px" y="0px"
	 width="353.188px" height="399.025px" viewBox="0 0 353.188 399.025" enable-background="new 0 0 353.188 399.025"
	 xml:space="preserve">
<path fill-rule="evenodd" clip-rule="evenodd" fill="#E6E7E8" d="M196.16,399.025c0-24.126,0-48.253,0-72.701
	c12.256-0.842,23.776-2.807,34.648-7.802c34.024-15.633,53.54-51.126,48.301-88.127c-5.008-35.37-33.448-64.353-69.089-70.209
	c-4.741-0.779-9.604-1.095-14.414-1.128c-18.299-0.128-36.6-0.052-55.129-0.052c11.67,11.648,23.098,23.055,34.337,34.273
	c-18.065,18.056-35.133,35.114-51.957,51.93C81.99,204.344,40.92,163.277,0,122.36C40.748,81.62,81.743,40.633,122.385,0
	c16.813,16.82,33.844,33.858,51.221,51.242c-10.824,10.783-22.271,22.184-33.717,33.585c0.215,0.405,0.428,0.811,0.643,1.216
	c1.584,0,3.168,0,4.753,0c17.329,0,34.669-0.42,51.984,0.076c61.397,1.759,108.111,29.302,137.19,83.188
	c49.416,91.573-3.519,204.219-105.275,226.379c-6.285,1.368-12.68,2.237-19.023,3.339
	C205.494,399.025,200.826,399.025,196.16,399.025z"/>
</svg>
