<?xml version="1.0" encoding="utf-8"?>
<!-- Generator: Adobe Illustrator 16.0.0, SVG Export Plug-In . SVG Version: 6.00 Build 0)  -->
<!DOCTYPE svg PUBLIC "-//W3C//DTD SVG 1.1//EN" "http://www.w3.org/Graphics/SVG/1.1/DTD/svg11.dtd">
<svg version="1.1" id="Layer_1" xmlns="http://www.w3.org/2000/svg" xmlns:xlink="http://www.w3.org/1999/xlink" x="0px" y="0px"
	 width="636.145px" height="171.646px" viewBox="0 0 636.145 171.646" enable-background="new 0 0 636.145 171.646"
	 xml:space="preserve">
<g>
	<g>
		<path fill="#B1B6A6" d="M156.764,169.775c-0.639,0.607-1.446,1.082-2.414,1.396c-0.963,0.329-1.967,0.475-3.007,0.475
			c-2.296,0-4.075-0.62-5.33-1.894c-1.255-1.264-1.87-3.044-1.87-5.307v-17.295h-4.879v-2.181h4.879v-5.777h2.531v5.777h8.41v2.181
			h-8.41v17.048c0,1.716,0.402,3.03,1.229,3.934c0.834,0.886,2.066,1.338,3.687,1.338c1.657,0,3.021-0.484,4.112-1.465
			L156.764,169.775z"/>
		<path fill="#B1B6A6" d="M186.639,147.653c1.93,1.935,2.893,4.71,2.893,8.333v15.464H187v-15.269c0-2.97-0.749-5.242-2.264-6.794
			c-1.506-1.565-3.605-2.337-6.311-2.337c-3.117,0-5.559,0.927-7.356,2.784c-1.798,1.861-2.688,4.371-2.688,7.511v14.104h-2.537
			v-37.632h2.537V150.5c0.913-1.825,2.264-3.23,4.063-4.244c1.788-0.994,3.905-1.487,6.333-1.487
			C182.08,144.769,184.713,145.727,186.639,147.653z"/>
		<path fill="#B1B6A6" d="M224.432,158.824h-22.785c0.074,2.063,0.59,3.896,1.589,5.494c0.972,1.615,2.295,2.856,3.979,3.732
			c1.679,0.872,3.549,1.323,5.658,1.323c1.729,0,3.316-0.319,4.781-0.949c1.47-0.625,2.701-1.537,3.697-2.756l1.469,1.67
			c-1.164,1.388-2.602,2.455-4.335,3.194c-1.757,0.748-3.646,1.113-5.663,1.113c-2.65,0-4.996-0.565-7.055-1.716
			c-2.063-1.149-3.688-2.747-4.855-4.772c-1.158-2.021-1.742-4.345-1.742-6.945c0-2.574,0.557-4.883,1.646-6.918
			c1.1-2.054,2.605-3.65,4.55-4.801c1.921-1.145,4.098-1.725,6.484-1.725c2.396,0,4.55,0.566,6.47,1.702
			c1.917,1.127,3.409,2.715,4.523,4.736c1.09,2.04,1.633,4.331,1.633,6.904L224.432,158.824z M206.831,148.237
			c-1.487,0.831-2.675,1.999-3.573,3.505s-1.424,3.213-1.551,5.102h20.283c-0.096-1.889-0.594-3.587-1.516-5.074
			c-0.898-1.487-2.107-2.656-3.6-3.495c-1.492-0.854-3.154-1.269-5.024-1.269C210.007,147.005,208.328,147.42,206.831,148.237z"/>
		<path fill="#B1B6A6" d="M249.441,133.818h2.533v37.632h-2.533V133.818z"/>
		<path fill="#B1B6A6" d="M281.201,147.279c1.753,1.67,2.629,4.135,2.629,7.374v16.797h-2.437v-4.714
			c-0.831,1.552-2.067,2.757-3.701,3.624c-1.61,0.862-3.573,1.286-5.822,1.286c-2.938,0-5.28-0.685-6.986-2.071
			c-1.706-1.388-2.56-3.208-2.56-5.485c0-2.181,0.785-3.975,2.367-5.348c1.566-1.373,4.076-2.045,7.535-2.045h9.07v-2.135
			c0-2.479-0.661-4.345-1.994-5.636c-1.35-1.282-3.289-1.921-5.867-1.921c-1.752,0-3.437,0.297-5.047,0.912
			c-1.611,0.603-2.957,1.42-4.07,2.428l-1.283-1.825c1.324-1.182,2.912-2.104,4.76-2.756c1.871-0.667,3.814-0.995,5.85-0.995
			C276.917,144.769,279.427,145.609,281.201,147.279z M277.816,168.05c1.537-1.004,2.696-2.491,3.48-4.408v-4.974h-9.025
			c-2.605,0-4.494,0.475-5.663,1.424c-1.159,0.944-1.747,2.25-1.747,3.906c0,1.72,0.634,3.08,1.916,4.07
			c1.301,1.013,3.104,1.506,5.449,1.506C274.43,169.575,276.277,169.064,277.816,168.05z"/>
		<path fill="#B1B6A6" d="M333.623,144.97l-10.021,26.479h-2.372l-8.936-22.976l-8.971,22.976h-2.346l-10.043-26.479h2.441
			l8.807,23.637l9.049-23.637h2.181l8.976,23.592l8.926-23.592H333.623z"/>
		<path fill="#B1B6A6" d="M360.199,169.93c-2.017-1.149-3.604-2.747-4.764-4.796c-1.132-2.049-1.707-4.357-1.707-6.922
			c0-2.574,0.575-4.883,1.707-6.918c1.159-2.054,2.747-3.65,4.764-4.801c1.99-1.145,4.262-1.725,6.744-1.725
			c2.51,0,4.765,0.58,6.781,1.725c2.008,1.15,3.596,2.747,4.755,4.801c1.142,2.035,1.706,4.344,1.706,6.918
			c0,2.564-0.564,4.873-1.706,6.922c-1.159,2.049-2.747,3.646-4.755,4.796c-2.017,1.15-4.271,1.716-6.781,1.716
			C364.461,171.646,362.189,171.081,360.199,169.93z M372.42,167.95c1.605-0.944,2.865-2.272,3.787-3.951
			c0.922-1.688,1.396-3.623,1.396-5.786c0-2.172-0.475-4.089-1.396-5.781c-0.922-1.693-2.182-3.008-3.787-3.957
			c-1.615-0.949-3.432-1.424-5.477-1.424c-2.008,0-3.832,0.475-5.439,1.424c-1.615,0.949-2.865,2.264-3.796,3.957
			c-0.94,1.692-1.396,3.609-1.396,5.781c0,2.163,0.456,4.098,1.396,5.786c0.931,1.679,2.181,3.007,3.796,3.951
			c1.607,0.949,3.432,1.424,5.439,1.424C368.988,169.374,370.805,168.899,372.42,167.95z"/>
		<path fill="#B1B6A6" d="M393.072,141.119v3.852h8.479v2.181h-8.405v24.299h-2.564v-24.299h-4.854v-2.181h4.854v-4.062
			c0-2.231,0.667-4.007,1.944-5.32c1.277-1.323,3.103-1.98,5.421-1.98c1.022,0,1.989,0.146,2.921,0.429
			c0.922,0.283,1.697,0.726,2.317,1.296l-1.022,1.926c-1.086-0.977-2.464-1.47-4.115-1.47
			C394.725,135.789,393.072,137.569,393.072,141.119z"/>
		<path fill="#B1B6A6" d="M411.764,141.119v3.852h8.451v2.181h-8.406v24.299h-2.537v-24.299h-4.883v-2.181h4.883v-4.062
			c0-2.231,0.639-4.007,1.917-5.32c1.278-1.323,3.103-1.98,5.431-1.98c1.013,0,1.98,0.146,2.91,0.429
			c0.941,0.283,1.707,0.726,2.318,1.296l-1.021,1.926c-1.086-0.977-2.465-1.47-4.098-1.47
			C413.389,135.789,411.764,137.569,411.764,141.119z M429.24,137.943c-0.401-0.388-0.593-0.872-0.593-1.442
			c0-0.575,0.191-1.067,0.593-1.469c0.42-0.411,0.895-0.616,1.488-0.616c0.565,0,1.067,0.205,1.469,0.593
			c0.402,0.379,0.594,0.867,0.594,1.446c0,0.566-0.191,1.068-0.594,1.47c-0.401,0.401-0.903,0.603-1.469,0.603
			C430.135,138.527,429.66,138.339,429.24,137.943z M429.45,144.97h2.537v26.479h-2.537V144.97z"/>
		<path fill="#B1B6A6" d="M448.324,169.93c-2.035-1.149-3.623-2.747-4.783-4.796c-1.141-2.049-1.706-4.357-1.706-6.922
			c0-2.61,0.565-4.929,1.706-6.981c1.16-2.045,2.748-3.633,4.783-4.76c2.017-1.136,4.334-1.702,6.89-1.702
			c2.136,0,4.079,0.411,5.805,1.241c1.752,0.831,3.157,2.04,4.243,3.623l-1.871,1.378c-0.948-1.318-2.135-2.313-3.531-2.975
			c-1.396-0.648-2.957-0.986-4.646-0.986c-2.054,0-3.905,0.466-5.54,1.401c-1.66,0.927-2.938,2.231-3.859,3.929
			c-0.949,1.688-1.396,3.633-1.396,5.832s0.447,4.144,1.396,5.832c0.922,1.697,2.199,3.002,3.859,3.934
			c1.635,0.921,3.486,1.396,5.54,1.396c1.688,0,3.249-0.333,4.646-0.994c1.396-0.662,2.583-1.644,3.531-2.957l1.871,1.359
			c-1.086,1.588-2.491,2.793-4.243,3.623c-1.726,0.831-3.669,1.241-5.805,1.241C452.658,171.646,450.341,171.081,448.324,169.93z"/>
		<path fill="#B1B6A6" d="M496.813,158.824h-22.762c0.073,2.063,0.584,3.896,1.561,5.494c0.995,1.615,2.318,2.856,3.979,3.732
			c1.679,0.872,3.577,1.323,5.658,1.323c1.733,0,3.313-0.319,4.81-0.949c1.469-0.625,2.674-1.537,3.669-2.756l1.47,1.67
			c-1.16,1.388-2.611,2.455-4.336,3.194c-1.752,0.748-3.623,1.113-5.658,1.113c-2.629,0-5.001-0.565-7.055-1.716
			c-2.063-1.149-3.678-2.747-4.837-4.772c-1.159-2.021-1.752-4.345-1.752-6.945c0-2.574,0.548-4.883,1.634-6.918
			c1.113-2.054,2.628-3.65,4.545-4.801c1.926-1.145,4.098-1.725,6.498-1.725c2.409,0,4.563,0.566,6.461,1.702
			c1.916,1.127,3.432,2.715,4.527,4.736c1.086,2.04,1.651,4.331,1.651,6.904L496.813,158.824z M479.207,148.237
			c-1.487,0.831-2.674,1.999-3.577,3.505c-0.895,1.506-1.396,3.213-1.533,5.102h20.297c-0.118-1.889-0.62-3.587-1.542-5.074
			c-0.895-1.487-2.108-2.656-3.596-3.495c-1.47-0.854-3.148-1.269-5.02-1.269C482.383,147.005,480.704,147.42,479.207,148.237z"/>
	</g>
	<g>
		<g>
			<path fill="#B1B6A6" d="M0,108.948v-1.433h5.59c2.583,0,4.76-0.383,6.525-1.141c1.762-0.767,3.08-1.916,3.938-3.445
				c0.858-1.528,1.301-3.445,1.301-5.731V17.773c0-2.202-0.442-4.011-1.301-5.446c-0.857-1.433-2.176-2.51-3.938-3.222
				C10.35,8.382,8.173,8.031,5.59,8.031H0V6.596h29.108L65.65,92.9L97.342,6.596h26.229v1.43h-1.857
				c-2.583,0-4.759,0.381-6.525,1.15c-1.767,0.758-3.089,1.908-3.947,3.437c-0.849,1.524-1.277,3.445-1.277,5.729v78.856
				c0,2.286,0.429,4.203,1.277,5.731c0.858,1.529,2.181,2.679,3.947,3.445c1.767,0.758,3.942,1.141,6.525,1.141h1.857v1.433h-38.13
				v-1.433h0.429c2.108,0,3.915-0.383,5.458-1.141c1.515-0.767,2.724-1.916,3.572-3.445c0.867-1.528,1.291-3.445,1.291-5.731V14.043
				l-34.835,94.905H57.92L18.782,15.914v81.284c0,2.286,0.425,4.203,1.292,5.731c0.857,1.529,2.167,2.679,3.941,3.445
				c1.767,0.758,3.93,1.141,6.53,1.141h2.564v1.433H0z"/>
			<path fill="#B1B6A6" d="M156.549,110.381c-6.512,0-12.242-1.314-17.217-3.934c-4.96-2.633-8.834-6.918-11.604-12.837
				c-2.77-5.923-4.157-13.712-4.157-23.365c0-9.838,1.409-17.657,4.229-23.446c2.816-5.779,6.621-9.914,11.391-12.4
				c4.786-2.485,10.185-3.73,16.199-3.73c4.029,0,7.953,0.534,11.841,1.586c3.86,1.056,7.032,2.656,9.519,4.798
				c2.492,2.153,3.732,4.999,3.732,8.526c0,2.108-0.496,3.801-1.5,5.093c-1,1.292-2.438,2.227-4.299,2.795
				c-1.857,0.58-4.18,0.862-6.95,0.862c0-5.067-0.36-9.245-1.081-12.54c-0.726-3.302-1.977-5.743-3.801-7.319
				c-1.821-1.574-4.404-2.366-7.749-2.366c-3.431,0-6.489,1.075-9.163,3.233c-2.674,2.142-4.76,5.966-6.242,11.462
				c-1.479,5.505-2.209,13.356-2.209,23.587c0,9.368,0.703,16.899,2.141,22.571c1.433,5.695,3.729,9.783,6.877,12.266
				c3.152,2.474,7.223,3.724,12.188,3.724c3.162,0,6.006-0.52,8.538-1.578c2.528-1.041,4.728-2.889,6.585-5.518
				c1.871-2.623,3.326-6.237,4.381-10.823c0.949,0.191,1.684,0.68,2.23,1.433c0.521,0.771,0.776,1.82,0.776,3.153
				c0,2.295-0.922,4.567-2.72,6.817c-1.825,2.235-4.549,4.134-8.178,5.663C166.68,109.619,162.094,110.381,156.549,110.381z"/>
		</g>
		<g>
			<path fill="#E6E7E8" d="M301.498,6.596H264.5v1.43h11.207c1.324,0,2.482,0.263,3.505,0.785c0.995,0.532,1.798,1.36,2.437,2.51
				c0.621,1.147,0.927,2.722,0.927,4.736v63.508l-49.031-72.97h-43.446v1.43h10.331c1.241,0,2.414,0.192,3.514,0.568
				c1.091,0.392,1.98,1.127,2.642,2.227c0.676,1.104,1.004,2.845,1.004,5.236v82.861c0,2.482-0.328,4.344-1.004,5.585
				c-0.661,1.246-1.643,2.063-2.934,2.438c-1.291,0.383-2.797,0.574-4.514,0.574h-9.039v1.433h36.984v-1.433h-11.18
				c-1.611,0-2.957-0.191-3.997-0.574c-1.067-0.375-1.808-1.191-2.231-2.438c-0.424-1.241-0.639-3.103-0.639-5.585V13.904
				l63.926,95.044h11.033V16.626c0-2.097,0.311-3.778,0.877-5.01c0.57-1.244,1.373-2.154,2.441-2.736
				c1.039-0.568,2.299-0.854,3.719-0.854h10.467V6.596z"/>
			<path fill="#E6E7E8" d="M457.943,106.803c-1.26-0.475-2.137-1.433-2.656-2.87c-0.52-1.428-0.775-3.582-0.775-6.452V57.338
				c0-9.651-1.972-16.626-5.905-20.927c-3.905-4.308-9.683-6.45-17.331-6.45c-4.217,0-7.793,0.588-10.75,1.787
				c-2.967,1.193-5.33,2.996-7.109,5.375c-1.753,2.394-3.076,5.353-3.934,8.894h-0.283c0.091-2.297,0.164-4.439,0.219-6.454
				c0.045-2.013,0.064-4.039,0.064-6.085c0-2.06,0-4.182,0-6.384V0H370.33v1.433h2.017c2.108,0,3.843,0.212,5.165,0.639
				c1.352,0.438,2.346,1.291,3.003,2.583c0.694,1.292,1.022,3.233,1.022,5.8V97.91c0,2.77-0.402,4.855-1.159,6.238
				c-0.757,1.387-1.871,2.3-3.294,2.724c-1.324,0.393-2.984,0.607-4.947,0.63c-1.926-0.041-3.486-0.306-4.664-0.844
				c-1.231-0.575-2.107-1.598-2.637-3.085c-0.539-1.483-0.803-3.509-0.803-6.092V54.046c0-8.894-2.748-15.123-8.232-18.709
				c-5.504-3.589-13.744-5.375-24.724-5.375c-5.822,0-11.198,0.495-16.126,1.501c-4.928,1.009-8.834,2.631-11.746,4.88
				c-2.911,2.238-4.385,5.186-4.385,8.81c0,3.634,1.848,6.217,5.521,7.746c3.691,1.529,9.309,2.298,16.842,2.298
				c0-9.085,0.566-15.323,1.652-18.711c1.096-3.399,3.131-5.093,6.097-5.093c1.815,0,3.222,0.486,4.29,1.436
				c1.039,0.956,1.77,2.532,2.227,4.723c0.429,2.204,0.639,5.271,0.639,9.177v19.505l-11.609,0.427
				c-10.591,0.379-18.526,2.391-23.783,6.026c-5.256,3.625-7.89,8.978-7.89,16.048c0,6.986,2.25,12.335,6.726,16.054
				c4.5,3.732,10.327,5.595,17.505,5.595c2.771,0,5.38-0.338,7.817-1c2.437-0.671,4.59-1.939,6.516-3.801
				c1.898-1.862,3.422-4.559,4.572-8.1h0.293v11.467h34.834h2.018h45.988v-1.433h-0.566c-2.107,0-3.814-0.237-5.139-0.712
				c-1.35-0.475-2.345-1.359-2.965-2.655c-0.612-1.287-0.922-3.222-0.922-5.8V59.921c0-3.826,0.282-7.472,0.857-10.968
				c0.594-3.481,1.561-6.358,2.93-8.597c1.405-2.25,3.295-3.375,5.668-3.375c3.074,0,5.109,1.433,6.178,4.299
				c1.041,2.877,1.561,7.367,1.561,13.478v54.189h36.853v-1.433h-0.565C460.854,107.515,459.175,107.278,457.943,106.803z
				 M336.234,85.866c0,3.543-0.356,6.691-1.068,9.461c-0.739,2.784-1.734,4.997-3.012,6.667c-1.287,1.67-2.848,2.51-4.646,2.51
				c-1.451,0-2.61-0.616-3.532-1.857c-0.903-1.245-1.588-3.162-2.063-5.744c-0.492-2.583-0.73-5.823-0.73-9.747
				c0-6.784,0.758-11.603,2.219-14.47c1.496-2.877,4.243-4.452,8.231-4.737l4.601-0.283V85.866z"/>
			<path fill="#E6E7E8" d="M533.637,39.918c-7.082-6.642-16.766-9.957-29.104-9.957c-13.197,0-23.163,3.315-29.962,9.957
				c-6.781,6.644-10.185,16.708-10.185,30.186s3.549,23.558,10.604,30.247c7.082,6.689,16.775,10.03,29.113,10.03
				c13.188,0,23.182-3.341,29.963-10.03c6.789-6.689,10.185-16.77,10.185-30.247S540.719,46.563,533.637,39.918z M514.928,93.397
				c-0.712,5.686-1.916,9.701-3.577,12.047c-1.68,2.341-4.007,3.504-6.964,3.504s-5.283-1.163-6.945-3.504
				c-1.679-2.346-2.855-6.361-3.596-12.047c-0.711-5.686-1.067-13.45-1.067-23.293c0-9.84,0.356-17.562,1.067-23.151
				c0.74-5.601,1.917-9.592,3.596-11.972c1.662-2.391,3.934-3.589,6.809-3.589c2.957,0,5.303,1.198,7.027,3.589
				c1.707,2.38,2.938,6.371,3.65,11.972c0.712,5.59,1.068,13.311,1.068,23.151C515.996,79.947,515.64,87.711,514.928,93.397z"/>
			<path fill="#E6E7E8" d="M635.569,107.515c-2.108,0-3.788-0.237-5.02-0.712c-1.251-0.475-2.126-1.433-2.646-2.87
				c-0.548-1.428-0.813-3.582-0.813-6.452V57.338c0-9.651-1.935-16.626-5.868-20.927c-3.906-4.308-9.692-6.45-17.34-6.45
				c-4.217,0-7.794,0.588-10.751,1.787c-2.957,1.193-5.33,2.996-7.109,5.375c-1.771,2.394-3.075,5.353-3.925,8.894h-0.283V32.104
				h-37.427v1.442h0.575c2.107,0,3.806,0.217,5.156,0.641c1.351,0.427,2.346,1.292,3.012,2.581c0.657,1.292,0.994,3.224,0.994,5.805
				V97.91c0,2.77-0.383,4.855-1.141,6.238c-0.757,1.387-1.871,2.3-3.285,2.724c-1.451,0.425-3.249,0.644-5.448,0.644h-0.575v1.433
				h48.014v-1.433h-0.574c-2.108,0-3.807-0.237-5.156-0.712c-1.333-0.475-2.328-1.359-2.939-2.655
				c-0.611-1.287-0.922-3.222-0.922-5.8V59.921c0-3.826,0.283-7.472,0.85-10.968c0.565-3.481,1.542-6.358,2.938-8.597
				c1.396-2.25,3.268-3.375,5.659-3.375c3.058,0,5.12,1.433,6.179,4.299c1.049,2.877,1.569,7.367,1.569,13.478v54.189h36.853v-1.433
				H635.569z"/>
		</g>
	</g>
</g>
</svg>
